<?xml version="1.0" encoding="utf-8"?>
<!-- Generator: Adobe Illustrator 25.2.0, SVG Export Plug-In . SVG Version: 6.00 Build 0)  -->
<svg version="1.1" id="Warstwa_1" xmlns="http://www.w3.org/2000/svg" xmlns:xlink="http://www.w3.org/1999/xlink" x="0px" y="0px"
	 viewBox="0 0 1958 712" style="enable-background:new 0 0 1958 712;" xml:space="preserve">
<style type="text/css">
	.st0{fill:#185A49;}
	.st1{fill-rule:evenodd;clip-rule:evenodd;fill:#185A49;}
</style>
<g>
	<g>
		<g>
			<path class="st0" d="M37.01,367.78c-21.82,4.66-37.99,15.57-36.11,24.39c-4.66-21.82,9.26-43.3,31.08-47.95
				c21.81-4.65,37.97-15.57,36.11-24.38C72.77,341.65,58.85,363.12,37.01,367.78"/>
			<path class="st0" d="M31.99,367.78c21.82,4.66,37.99,15.57,36.11,24.39c4.66-21.82-9.26-43.3-31.08-47.95
				c-21.81-4.65-37.97-15.57-36.11-24.38C-3.77,341.65,10.15,363.12,31.99,367.78"/>
			<path class="st0" d="M674.99,367.78c21.82,4.66,37.99,15.57,36.11,24.39c4.66-21.82-9.26-43.3-31.08-47.95
				c-21.81-4.65-37.97-15.57-36.11-24.38C639.23,341.65,653.15,363.12,674.99,367.78"/>
			<path class="st0" d="M680.01,367.78c-21.83,4.66-37.99,15.57-36.11,24.39c-4.66-21.82,9.26-43.3,31.08-47.95
				c21.81-4.65,37.97-15.57,36.11-24.38C715.77,341.65,701.85,363.12,680.01,367.78"/>
			<path class="st0" d="M104.12,536.59c15.59,13.09,23.94,28.8,18.65,35.1c13.09-15.58,11.07-38.84-4.51-51.93
				c-15.57-13.08-23.92-28.79-18.65-35.1C86.5,500.23,88.52,523.49,104.12,536.59"/>
			<path class="st0" d="M607.88,536.59c-15.59,13.09-23.94,28.8-18.65,35.1c-13.09-15.58-11.07-38.84,4.52-51.93
				c15.57-13.08,23.92-28.79,18.65-35.1C625.5,500.23,623.48,523.49,607.88,536.59"/>
			<path class="st0" d="M164.82,615.06c-17.46-8.48-37.91-13.25-57.28-11.9c16.08-10.87,31.08-23.88,39.59-41.32
				C148.5,581.22,153.95,598.96,164.82,615.06"/>
			<path class="st0" d="M173.41,621.3c-14.1,15.34-39.4,14.63-54.74,0.53C132.76,606.5,159.65,606.53,173.41,621.3"/>
			<path class="st0" d="M173.4,621.28c10.83-16,8.19-37.75-7.81-48.58C154.77,588.7,157.25,619.55,173.4,621.28"/>
			<path class="st0" d="M66.79,498.12c-19.34,5.98-41.73-7.06-47.71-26.4C38.41,465.75,60.81,478.68,66.79,498.12"/>
			<path class="st0" d="M66.79,498.12c17.41-8.37,24.53-29.24,16.16-46.65C65.54,459.84,54.46,490.49,66.79,498.12"/>
			<path class="st0" d="M71.41,403.16c-1.14,14.58-14.08,25.06-28.66,23.91C43.9,412.49,56.83,402.01,71.41,403.16"/>
			<path class="st0" d="M43.44,426.76c-1.23,15.7-14.53,26.72-30.23,25.49C14.44,436.54,27.74,425.53,43.44,426.76"/>
			<path class="st0" d="M79.15,438.14c-12.98,6.72-28.96,1.65-35.68-11.34C56.45,420.08,72.43,425.15,79.15,438.14"/>
			<path class="st0" d="M43.41,426.72c-13.98,7.24-31.19,1.77-38.43-12.21C18.96,407.27,36.17,412.73,43.41,426.72"/>
			<path class="st0" d="M35.56,388.25c11.49,8.11,15.81,25.3,7.58,38.14C30.3,418.16,27.34,401.09,35.56,388.25"/>
			<path class="st0" d="M43.15,426.39c12.84,8.22,16.42,24.67,9.21,37.04c0.07-0.11,0.12,0.05,0,0
				C40.35,458.69,35,439.11,43.15,426.39"/>
			<path class="st0" d="M48.58,260.52c-20.37-14.53-24.84-42.64-10.31-63C58.64,212.04,60.26,241.54,48.58,260.52"/>
			<path class="st0" d="M48.48,260.48c24.88,2.59,47.67-15.1,50.26-39.99C73.86,217.9,51.07,235.59,48.48,260.48"/>
			<path class="st0" d="M76.21,195.6c-16.45-18.85-14.31-47.22,4.54-63.68C97.2,150.77,91.96,179.84,76.21,195.6"/>
			<path class="st0" d="M76.12,195.55c23.61,8.27,49.87-3.67,58.15-27.28C110.66,159.99,84.4,171.93,76.12,195.55"/>
			<path class="st0" d="M116.58,140.75c-12.55-21.64-5.02-49.09,16.62-61.64C145.75,100.75,135.05,128.28,116.58,140.75"/>
			<path class="st0" d="M116.5,140.67c21.6,12.63,49.65,5.93,62.29-15.67C157.19,112.37,129.13,119.07,116.5,140.67"/>
			<path class="st0" d="M19.41,255.99c-12.25,12.04-11.8,31.16-0.37,43.98c8.08,9.06,17.52,13.96,16.74,23.23l1.87-10.29
				c1.16-7.58,2.98-17.1-5.39-25.95C20.46,274.49,13.28,262.01,19.41,255.99"/>
			<path class="st0" d="M75.34,270.7c4.89,14.99-2.79,31.19-16.83,36.85c-9.01,3.63-21.43,6.22-22.73,15.66c0,0,0.02-1.65,0.34-5
				c1.74-18.18,3.42-22.95,15.69-27.86C67.21,284.2,75.22,281.04,75.34,270.7"/>
			<path class="st0" d="M165.99,95.83c5.48-23.55,29.94-37.27,53.49-31.8C214.01,87.58,189.54,101.31,165.99,95.83"/>
			<path class="st0" d="M35.6,321.22c0,0,0.22-2.84,0.63-4.42c0.76-2.91,3.39-7.52,4-11.34c13.56-85.37,61.28-161.78,133.03-211.9
				l-2.87-4.1C97.49,140.38,49.01,218.03,35.26,304.77c-0.6,3.8-1.77,7.43,0.11,12.98C35.92,319.38,35.6,321.22,35.6,321.22"/>
			<path class="st0" d="M112.59,569.93c0-9.99-8.1-18.09-18.09-18.09s-18.09,8.1-18.09,18.09c0,9.99,8.1,18.09,18.09,18.09
				S112.59,579.93,112.59,569.93"/>
			<path class="st0" d="M38.02,515.56c20.82-7.85,44.07,2.66,51.93,23.49C69.12,546.9,45.87,536.39,38.02,515.56"/>
			<path class="st0" d="M547.18,615.06c17.45-8.48,37.91-13.25,57.28-11.9c-16.08-10.87-31.08-23.88-39.59-41.32
				C563.49,581.22,558.05,598.96,547.18,615.06"/>
			<path class="st0" d="M538.59,621.3c14.1,15.34,39.4,14.63,54.74,0.53C579.24,606.5,552.35,606.53,538.59,621.3"/>
			<path class="st0" d="M538.59,621.28c-10.83-16-8.19-37.75,7.81-48.58C557.23,588.7,554.75,619.55,538.59,621.28"/>
			<path class="st0" d="M645.21,498.12c19.34,5.98,41.73-7.06,47.71-26.4C673.59,465.75,651.19,478.68,645.21,498.12"/>
			<path class="st0" d="M645.21,498.12c-17.41-8.37-24.53-29.24-16.16-46.65C646.46,459.84,657.54,490.49,645.21,498.12"/>
			<path class="st0" d="M640.59,403.16c1.14,14.58,14.08,25.06,28.66,23.91C668.1,412.49,655.17,402.01,640.59,403.16"/>
			<path class="st0" d="M668.56,426.76c1.23,15.7,14.53,26.72,30.23,25.49C697.56,436.54,684.26,425.53,668.56,426.76"/>
			<path class="st0" d="M632.85,438.14c12.98,6.72,28.96,1.65,35.68-11.34C655.55,420.08,639.57,425.15,632.85,438.14"/>
			<path class="st0" d="M668.59,426.72c13.98,7.24,31.19,1.77,38.43-12.21C693.04,407.27,675.83,412.73,668.59,426.72"/>
			<path class="st0" d="M676.44,388.25c-11.5,8.11-15.81,25.3-7.59,38.14C681.7,418.16,684.66,401.09,676.44,388.25"/>
			<path class="st0" d="M668.85,426.39c-12.84,8.22-16.42,24.67-9.21,37.04c-0.07-0.11-0.12,0.05,0,0
				C671.65,458.69,677,439.11,668.85,426.39"/>
			<path class="st0" d="M663.42,260.52c20.37-14.53,24.84-42.64,10.31-63C653.36,212.04,651.74,241.54,663.42,260.52"/>
			<path class="st0" d="M663.52,260.48c-24.89,2.59-47.67-15.1-50.26-39.99C638.14,217.9,660.93,235.59,663.52,260.48"/>
			<path class="st0" d="M635.79,195.6c16.45-18.85,14.31-47.22-4.54-63.68C614.8,150.77,620.04,179.84,635.79,195.6"/>
			<path class="st0" d="M635.88,195.55c-23.61,8.27-49.87-3.67-58.15-27.28C601.34,159.99,627.6,171.93,635.88,195.55"/>
			<path class="st0" d="M595.42,140.75c12.55-21.64,5.02-49.09-16.62-61.64C566.25,100.75,576.95,128.28,595.42,140.75"/>
			<path class="st0" d="M595.5,140.67c-21.6,12.63-49.65,5.93-62.29-15.67C554.81,112.37,582.87,119.07,595.5,140.67"/>
			<path class="st0" d="M692.59,255.99c12.25,12.04,11.8,31.16,0.37,43.98c-8.08,9.06-17.52,13.96-16.75,23.23l-1.87-10.29
				c-1.16-7.58-2.98-17.1,5.39-25.95C691.54,274.49,698.72,262.01,692.59,255.99"/>
			<path class="st0" d="M636.66,270.7c-4.89,14.99,2.79,31.19,16.83,36.85c9.01,3.63,21.43,6.22,22.72,15.66c0,0-0.02-1.65-0.34-5
				c-1.74-18.18-3.42-22.95-15.69-27.86C644.79,284.2,636.78,281.04,636.66,270.7"/>
			<path class="st0" d="M546.01,95.83c-5.48-23.55-29.94-37.27-53.49-31.8C497.99,87.58,522.46,101.31,546.01,95.83"/>
			<path class="st0" d="M676.4,321.22c0,0-0.22-2.84-0.63-4.42c-0.76-2.91-3.39-7.52-4-11.34
				c-13.56-85.37-61.28-161.78-133.03-211.9l2.87-4.1c72.89,50.91,121.37,128.57,135.12,215.31c0.6,3.8,1.77,7.43-0.11,12.98
				C676.08,319.38,676.4,321.22,676.4,321.22"/>
			<path class="st0" d="M599.41,569.93c0-9.99,8.1-18.09,18.09-18.09c9.99,0,18.09,8.1,18.09,18.09c0,9.99-8.1,18.09-18.09,18.09
				C607.51,588.03,599.41,579.93,599.41,569.93"/>
			<path class="st0" d="M673.98,515.56c-20.82-7.85-44.07,2.66-51.93,23.49C642.88,546.9,666.13,536.39,673.98,515.56"/>
		</g>
		<g>
			<path class="st0" d="M378.82,141.18c-7.28-7.28-7.28-19.07,0-26.35c-9.94,2.66-20.16-3.23-22.82-13.17
				c-2.66,9.94-12.88,15.84-22.82,13.17c7.28,7.28,7.28,19.07,0,26.35c9.94-2.66,20.16,3.24,22.82,13.18
				C358.66,144.41,368.88,138.51,378.82,141.18"/>
			<path class="st0" d="M606.82,369.18c-7.28-7.28-7.28-19.07,0-26.35c-9.94,2.66-20.16-3.24-22.82-13.17
				c-2.66,9.94-12.88,15.84-22.82,13.17c7.28,7.28,7.28,19.08,0,26.35c9.94-2.66,20.16,3.24,22.82,13.18
				C586.66,372.41,596.88,366.51,606.82,369.18"/>
			<path class="st0" d="M150.82,369.18c-7.28-7.28-7.28-19.07,0-26.35c-9.94,2.66-20.16-3.24-22.82-13.17
				c-2.66,9.94-12.88,15.84-22.82,13.17c7.28,7.28,7.28,19.08,0,26.35c9.94-2.66,20.16,3.24,22.82,13.18
				C130.66,372.41,140.88,366.51,150.82,369.18"/>
			<path class="st0" d="M341.95,469.57c0,0-36.65-2.67-34.09,49.32c0,0-38.6,5.34-43.87,11.46c-8.13,8.87-15.43-7.7-6.57-12.97
				c9.08-5.4,24.76-10.73,31.37-12.86c-6.64-12.09-21.13-32.35-12.19-52.92c11.08-25.51,46.48-18.29,60.02-4.36L341.95,469.57z"/>
			<path class="st0" d="M370.05,469.88c0,0,36.65-2.67,34.09,49.32c0,0,38.6,5.34,43.87,11.46c8.13,8.87,15.43-7.7,6.57-12.97
				c-9.08-5.4-24.76-10.73-31.37-12.86c6.64-12.09,21.13-32.35,12.19-52.92c-11.08-25.51-46.48-18.29-60.02-4.36L370.05,469.88z"/>
			<path class="st0" d="M324.88,353.16c-11.65-22.25-31.03-28.93-31.03-28.93s19.82-16.17,10.78-37.83
				c-18.25-43.74-72.04-56.16-94.71-121.67c-14.65,18.56-7.01,38.13,6.68,58.26c-8.99-6.39-18.36-9.57-28.25-8.25
				c-1.03,14.98,8.43,22.04,13.87,32.14c-8.57-2.09-17.14-4.07-25.84,4.73c1.02,6.46,8.34,19.08,19.57,23.71
				c-6.62,0.12-13.36,2.44-20.46,11.22c6.19,8.17,13.04,14.09,21.03,16.08c-5.1,2.71-10.3,3.95-14.88,14.09
				c4.82,6.56,11.15,10.09,19.18,11.99c-3.24,4.22-7.37,6.23-7.76,17.45c11.37,7.38,17.66,5.26,23.19,5.34
				c-2.47,6.26-3.31,13.68-0.6,23.62c7.42,0.05,15.52,1.32,20.83-2.38c-2.75,6.73,0.74,12.58,2.62,18.66
				c8.31,0.44,15.44,0.13,19.68-4.41c-1.48,5.75,2.88,12.18,7.21,18.25c7.32-1.25,15.36-1.6,18.7-7.71
				c1.28,6.27,7.66,9.9,13.86,13.62c7.02-1.75,13.52-5.32,15.39-10.71c2.37,5.32,7.4,9.72,15.79,12.94
				c3.47,21.45,8.43,46.65,10.95,61.25c0.96,32.46-13.29,77.38-29.38,91.12c0,0,11.53,17.98,44.64,18.35l0.05,0l0.05,0
				c33.11-0.37,44.64-18.35,44.64-18.35c-16.1-13.74-30.34-58.67-29.39-91.12c2.52-14.6,7.48-39.8,10.95-61.25
				c8.39-3.23,13.42-7.62,15.79-12.94c1.87,5.39,8.37,8.96,15.39,10.71c6.2-3.72,12.59-7.35,13.86-13.62
				c3.34,6.1,11.39,6.45,18.7,7.71c4.33-6.07,8.7-12.5,7.21-18.25c4.24,4.55,11.38,4.85,19.68,4.41c1.88-6.08,5.38-11.93,2.62-18.66
				c5.31,3.7,13.41,2.43,20.83,2.38c2.71-9.94,1.87-17.36-0.6-23.62c5.54-0.08,11.82,2.04,23.19-5.34
				c-0.39-11.22-4.52-13.23-7.76-17.45c8.02-1.9,14.36-5.42,19.18-11.99c-4.58-10.14-9.78-11.38-14.88-14.09
				c8-1.98,14.85-7.91,21.03-16.08c-7.1-8.78-13.84-11.1-20.46-11.22c11.23-4.63,18.55-17.26,19.57-23.71
				c-8.7-8.8-17.28-6.82-25.84-4.73c5.44-10.1,14.9-17.17,13.87-32.14c-9.9-1.32-19.26,1.87-28.25,8.25
				c13.7-20.14,21.33-39.7,6.68-58.26c-22.67,65.5-76.46,77.92-94.71,121.67c-9.04,21.66,10.78,37.83,10.78,37.83
				s-19.38,6.68-31.03,28.93c0-21.02-9.7-51.95-11.03-62.58c-0.71-5.73-0.19-12.63,0.77-19.07c3.3-20.69,17.95-33,18.41-33.38
				c-0.29,0.15-5.26,2.77-14.06,0.78c-0.91-0.2-1.81-0.51-2.71-0.88c-6.17-2.49-12.62-8.02-24.23-6.44
				c-5.03,0.69-8.99,3.14-11.64,6.44c-0.06,0.07-0.1,0.15-0.16,0.22c-4.32-2.92-8.79-3.68-13.16-2.92
				c-7.34,1.27-10.91,6.79-10.91,11.83l0,0.73c10.79-1.05,17.78,1.33,22.84,7.34c-5.82-2.08-12.21-3.34-21.63-1.16
				c-7.55,1.75-15-2.08-15-2.08s2.46,9.18,13.85,8.63c13.09-0.63,19.66,2.62,23.4,6.65c-7.51-1.75-15.59-3.04-18.77,2.95
				c7.56,0.32,21.51,9.38,20,20.34C341.62,301.19,324.88,334.67,324.88,353.16"/>
			<path class="st0" d="M226.19,523.37c-11.15,5.03-13.15,12.15-9.61,20.01l0.02,0.01c3.3-9.9,12.97-13.16,19.48-13.81
				c-11.08,6.76-11.14,14.85-7.27,21.29l-0.03,0c11.08-17.49,34.13-21.29,41.32-12.24l-0.07,0.13c1.85-3.59,2.25-7.38,0.76-10.67
				C265.66,516.68,245.68,514.57,226.19,523.37"/>
			<path class="st0" d="M485.81,523.37c11.15,5.03,13.15,12.15,9.61,20.01l-0.02,0.01c-3.3-9.9-12.97-13.16-19.48-13.81
				c11.08,6.76,11.14,14.85,7.28,21.29l0.03,0c-11.08-17.49-34.13-21.29-41.32-12.24l0.07,0.13c-1.85-3.59-2.25-7.38-0.76-10.67
				C446.34,516.68,466.32,514.57,485.81,523.37"/>
			<path class="st1" d="M373.79,218.98c3.15-3.35,10.46-6.54,13.09-7.22c6.52-1.7,14.05,0.37,15.46,6.75
				c1.41,6.38-3.75,12.03-10.62,13.13c-6.3,1.01-13.16-3.43-20.14-5.63c-6.98-2.2-15.14-2.51-19.73-6.94
				c-5-4.84-5.99-12.43-1.17-16.85c4.82-4.42,12.18-1.8,16.54,3.34C368.97,207.62,373.13,214.42,373.79,218.98"/>
			<polygon class="st0" points="377.2,224.8 367.66,221.79 378.97,190.97 385.62,193.07 			"/>
			<polygon class="st0" points="381.85,177.85 390.79,180.67 385.62,193.07 378.97,190.97 			"/>
			<polygon class="st0" points="369.32,191.73 371.73,184.1 383.24,189 381.57,194.32 			"/>
			<polygon class="st0" points="395.49,191.59 393.09,199.22 381.57,194.32 383.24,189 			"/>
			<path class="st0" d="M547.23,424c6.69,31.66-13.55,62.76-45.21,69.46C495.32,461.79,515.57,430.7,547.23,424"/>
			<path class="st0" d="M531.3,504.83c13.36-6.76,23.08-17.89,28.29-30.77c-13.47-3.42-28.19-2.18-41.55,4.6
				c-6.04,3.07-11.33,7.01-15.8,11.6c2.38-5.94,3.84-12.38,4.19-19.15c0.76-14.97-4.09-28.93-12.67-39.84
				c-9.65,9.99-15.88,23.39-16.64,38.34c-0.76,14.97,4.08,28.89,12.64,39.8c0,0.02,0,0.02,0.02,0.03c0.01,0.01,0.01,0.01,0.03,0
				C503.24,512.84,517.94,511.61,531.3,504.83"/>
			<path class="st0" d="M221.22,509c-15.06-17.57-41.52-19.61-59.09-4.55C177.19,522.02,203.65,524.06,221.22,509"/>
			<path class="st0" d="M221.19,509.02c-8.14-21.67,2.82-45.83,24.49-53.97C253.82,476.71,242.86,500.88,221.19,509.02"/>
			<path class="st0" d="M152.41,467.92c25.63,7.45,49.41,21.64,68.77,41.1c-7.86-26.3-8.98-53.98-3.28-80.05
				C200.12,447.84,177.49,461.3,152.41,467.92"/>
			<path class="st0" d="M191.06,458.83c8.85-5.43,11.63-17,6.2-25.85c-5.43-8.85-17-11.63-25.85-6.2c-8.85,5.43-11.63,17-6.2,25.86
				C170.63,461.48,182.21,464.26,191.06,458.83"/>
		</g>
		<g>
			<path class="st0" d="M438.34,72.5c5.62,0,9.64-11.65,9.64-18.17c0-3.82-1.41-6.83-4.22-6.83c-5.62,0-9.44,11.55-9.44,18.38
				C434.32,70.09,435.83,72.5,438.34,72.5 M443.26,81.04c-12.85,0-26.81-8.33-26.81-25.91c0-19.28,17.47-39.26,41.07-39.26
				c4.12,0,9.54,0.6,14.96,2.01l-2.01,7.23c-2.31-0.4-4.52-0.7-6.63-0.7c-11.85,0-22.09,6.53-27.31,20.69l0.3,0.2
				c3.41-3.31,7.23-4.52,11.05-4.52c9.64,0,18.48,7.83,18.48,19.38C466.35,70.59,457.11,81.04,443.26,81.04 M364.43,66.31
				c0.4-2.91,0.6-5.56,0.8-8.57c3.31,0.5,6.73,0.8,10.14,1.1l4.12-48.1c-3.31,0.6-7.33,0.9-10.64,1.31c0.4-2.51,0.8-5.22,0.9-7.83
				c6.43-0.3,20.79-2.31,28.72-3.82l1.31,0.2l-5.12,59.85c3.32,0.3,6.73,0.6,10.04,0.7c-0.3,3.01-0.7,5.92-0.7,8.94
				C390.84,67.68,376.76,66.66,364.43,66.31 M327.78,61.35c3.82,0,6.23-3.51,6.23-8.53c0-7.23-4.92-9.74-11.65-12.45
				c-1,3.31-1.3,5.93-1.3,8.44C321.05,54.93,322.46,61.35,327.78,61.35 M327.28,26.91c1.21-1.91,1.21-3.71,1.21-6.13
				c0-5.22-1.61-13.05-6.02-13.05c-2.51,0-4.12,2.31-4.12,6.33C318.34,19.98,321.75,24.2,327.28,26.91 M326.17,70.19
				c-1.41,0.1-2.31,0.2-4.22,0.2c-11.65,0-20.08-6.12-20.08-15.06s8.43-14.36,16.07-16.77c-8.23-3.82-16.27-10.14-16.27-19.08
				C301.67,8.64,313.32,0,326.27,0c11.85,0,18.78,7.23,18.78,14.46c0,7.53-7.33,12.95-12.85,14.76
				c10.84,4.22,20.99,7.63,20.99,18.58C353.18,60.05,340.33,68.99,326.17,70.19 M256.79,83.97c-0.7-2.91-1.61-5.72-2.51-8.53
				c3.21-0.8,6.53-1.81,9.74-2.81l-13.76-45.01c-2.91,1.71-5.83,3.11-8.64,4.72c-0.6-2.51-1.31-5.12-2.11-7.53
				c5.92-2.71,17.77-9.54,24.6-13.86l1.2-0.3l17.27,56.45c3.21-0.9,8.01-2.36,9.64-3.01c0.75,2.88,1.31,5.02,2.61,8.53
				C282.09,75.58,268.74,79.19,256.79,83.97"/>
		</g>
		<g>
			<path class="st0" d="M416.46,644.83c-1.6,0-4.01,0.3-5.52,0.3l-1-5.6c9.27-1.41,24.24-5.41,31.06-7.53
				c0.23,0.9,0.94,3.46,1.54,4.97c-2.21,1.51-3.31,2.61-5.72,4.21l30.29,43.64l0.4-0.2l-1.9-45.34l-5.22-6.52
				c-1.61,0-4.01,0.3-5.62,0.3c-0.2-1.7-0.6-3.71-1-5.11c10.33-3.71,19.61-7.67,29.65-12.74c0.33,1.68,0.94,3.81,1.54,5.32
				c-2.11,1.5-3.31,2.51-5.62,4.21l29.49,40.73l0.3-0.1l-3.72-53.59c-2.71-0.1-6.08,0.99-7.92,1.7c-0.29-1.41-0.63-3.5-1-5.02
				c6.39-3.34,18.04-10.66,19.46-11.57c0.17,1.2,0.92,3.26,1.5,4.91c-1.83,1.47-3.03,2.58-4.44,4.87l3.73,65.82
				c-6.02,3.51-12.04,6.42-18.26,8.53l-24.58-31.4l1.2,42.13c-5.61,2.57-13.55,4.48-19.77,6.68L416.46,644.83z M400.41,701.67
				c-6.72,7.22-16.25,10.33-26.38,10.33c-20.66,0-33.91-13.64-33.91-35.11c0-25.18,19.36-35.21,47.35-35.21
				c4.11,0,8.53,0.2,11.84,0.9v20.46l-5.32,0.5c-2.31-10.53-8.02-14.65-15.85-14.65c-12.34,0-16.55,9.73-16.55,23.17
				c0,15.05,5.12,32.1,16.45,31.9c6.82-0.1,10.03-6.02,10.03-17.66c0-1.6-0.1-3.31-0.2-5.22c-2.81-0.4-6.72-0.8-8.53-1.1
				c0.2-1.91,0.3-4.31,0.3-6.22l26.28-2.21l3.01,36.71c-1.81-0.1-3.41,0.1-5.12,0.5L400.41,701.67z M293.28,705.67
				c-19.56,0-35.81-12.34-35.81-33.91c0-18.76,12.34-35.41,34.41-35.41c10.33,0,25.28,3.81,33.7,7.82l-5.92,19.66l-5.12-1.1
				c0.9-10.33-5.02-18.96-15.15-18.96c-13.84,0-20.86,17.66-20.86,36.31c0,10.73,4.11,17.45,11.44,17.45
				c7.02,0,11.03-6.22,13.84-19.46c-2.61-1.2-6.32-2.71-7.92-3.41c0.7-1.81,1.5-4.01,2.11-5.92l25.78,5.12l-7.22,36.11
				c-1.6-0.6-3.41-0.9-5.12-1l-1.2-7.62C304.92,704.47,299.4,705.67,293.28,705.67 M219.23,680.76c-12.84,0-32.7-7.93-38.62-18.56
				c3.41-5.82,6.52-11.74,9.33-17.76c1.81,0.9,3.61,1.71,5.42,2.51c-1.1,3.21-1.6,6.02-1.6,8.33c0,8.93,7.52,16.75,15.05,16.75
				c4.82,0,6.82-3.11,6.82-7.12c0-10.13-14.54-25.08-14.54-36.61c0-9.33,7.62-16.05,18.56-16.05c11.24,0,28.69,7.22,34.41,18.26
				c-3.21,4.21-6.32,8.53-9.13,12.94c-1.5-0.9-3.11-1.61-4.82-2.21c0.9-2.81,1.4-5.22,1.4-7.22c0-7.12-6.32-12.74-12.44-12.74
				c-4.61,0-6.72,3.21-6.72,6.82c0,8.83,15.95,26.58,15.95,38.22C238.29,675.44,229.76,680.76,219.23,680.76"/>
		</g>
	</g>
</g>
<g>
	<g>
		<g>
			<path class="st0" d="M1914.55,474.8c0-5.94,5.41-10.05,13.4-10.05c7.77,0,12.72,3.88,14.19,11.2h14.75
				c-1.69-14.52-12.27-23.09-29.04-23.09c-16.32,0-29.04,8-29.04,23.54c0,28.46,42.89,19.89,42.89,36.8c0,6.17-5.74,9.6-14.41,9.6
				c-7.66,0-14.64-2.51-15.99-11.88h-14.75c1.69,16.46,13.51,24.23,30.96,24.23c19.14,0,30.51-9.37,30.51-24.34
				C1958,481.77,1914.55,491.26,1914.55,474.8 M1836.76,521.66v-22.97h35.69v-12.34h-35.69v-20h39.06V454h-54.26v80h55.39v-12.34
				H1836.76z M1766.07,522.8c-12.94,0-21.61-10.28-21.61-28.8c0-18.52,8.67-28.8,21.61-28.8c7.99,0,14.86,4.11,17.56,14.63h14.97
				c-3.04-18.63-16.89-26.97-32.53-26.97c-22.29,0-37.94,16-37.94,41.14c0,25.14,15.65,41.14,37.94,41.14
				c15.65,0,29.5-8.34,32.53-26.97h-14.97C1780.93,518.69,1774.06,522.8,1766.07,522.8 M1689.97,454v52.68l-44.8-52.68h-11.59v80
				h15.2v-52.69l44.81,52.69h11.59v-80H1689.97z M1570.87,521.66v-22.97h35.68v-12.34h-35.68v-20h39.06V454h-54.26v80h55.39v-12.34
				H1570.87z M1513.46,534h15.2v-80h-15.2V534z M1457.96,522.8c-12.95,0-21.61-10.28-21.61-28.8c0-18.52,8.67-28.8,21.61-28.8
				c7.99,0,14.86,4.11,17.56,14.63h14.97c-3.04-18.63-16.89-26.97-32.54-26.97c-22.29,0-37.94,16-37.94,41.14
				c0,25.14,15.65,41.14,37.94,41.14c15.65,0,29.49-8.34,32.54-26.97h-14.97C1472.82,518.69,1465.95,522.8,1457.96,522.8
				 M1356.53,474.8c0-5.94,5.4-10.05,13.4-10.05c7.77,0,12.72,3.88,14.18,11.2h14.75c-1.69-14.52-12.27-23.09-29.04-23.09
				c-16.32,0-29.04,8-29.04,23.54c0,28.46,42.89,19.89,42.89,36.8c0,6.17-5.74,9.6-14.41,9.6c-7.66,0-14.63-2.51-15.99-11.88h-14.75
				c1.69,16.46,13.51,24.23,30.96,24.23c19.14,0,30.51-9.37,30.51-24.34C1399.99,481.77,1356.53,491.26,1356.53,474.8
				 M1254.44,521.66v-22.97h35.69v-12.34h-35.69v-20h39.06V454h-54.26v80h55.38v-12.34H1254.44z M1217.86,466.34V454h-52.01v80h15.2
				v-32.8h35.69v-12.34h-35.69v-22.52H1217.86z M1124.2,534h15.2v-80h-15.2V534z M1065.55,521.66V454h-15.2v80h53.81v-12.34H1065.55
				z M999.27,466.34V454h-52.01v80h15.2v-32.8h35.68v-12.34h-35.68v-22.52H999.27z M886.92,522.8c-12.27,0-21.61-10.28-21.61-28.8
				c0-18.52,9.34-28.8,21.61-28.8c12.27,0,21.61,10.28,21.61,28.8C908.53,512.51,899.19,522.8,886.92,522.8 M886.92,452.86
				c-22.29,0-37.94,16-37.94,41.14c0,25.14,15.65,41.14,37.94,41.14c22.29,0,37.94-16,37.94-41.14
				C924.86,468.86,909.21,452.86,886.92,452.86"/>
			<path class="st0" d="M1606.16,316h-16.63l-19.23,34.29L1549.92,316h-17.42l29.76,48.46V396h15.27v-31.54L1606.16,316z
				 M1519.83,316h-65.74v12.34h25.23V396h15.27v-67.66h25.23V316z M1418.57,396h15.28v-80h-15.28V396z M1350.57,336.8
				c0-5.95,5.43-10.06,13.46-10.06c7.81,0,12.79,3.89,14.26,11.2h14.82c-1.7-14.51-12.33-23.09-29.19-23.09
				c-16.41,0-29.19,8-29.19,23.54c0,28.46,43.11,19.89,43.11,36.8c0,6.17-5.77,9.6-14.48,9.6c-7.69,0-14.71-2.52-16.07-11.89h-14.82
				c1.7,16.46,13.58,24.23,31.11,24.23c19.24,0,30.66-9.37,30.66-24.34C1394.24,343.77,1350.57,353.26,1350.57,336.8 M1268.31,352.8
				v-24.46h10.64c10.86,0,16.97,3.77,16.97,12.23c0,8.46-6.11,12.23-16.97,12.23H1268.31z M1303.72,370.17
				c-2.38-4.46-4.86-7.54-8.03-9.6c8.94-3.2,15.61-9.71,15.61-20.46c0-16.91-13.69-24.11-29.19-24.11h-29.08v80h15.28v-30.86h5.32
				c7.92,0,10.98,1.6,14.82,8.46l12.45,22.4h17.2L1303.72,370.17z M1188.77,383.66v-22.97h35.87v-12.34h-35.87v-20h39.26V316h-54.53
				v80h55.66v-12.34H1188.77z M1137.41,316l-19.57,62.86L1097.58,316h-16.63l27.49,80h18.22l26.59-80H1137.41z M1045.42,396h15.27
				v-80h-15.27V396z M1002.88,316v52.69L957.85,316H946.2v80h15.28v-52.69L1006.5,396h11.66v-80H1002.88z M904.22,316v47.54
				c0,13.14-6.34,21.26-18.22,21.26c-11.88,0-18.22-8.11-18.22-21.26V316h-15.28v48.69c0,19.43,13.12,32.46,33.49,32.46
				c20.37,0,33.49-13.03,33.49-32.46V316H904.22z"/>
			<path class="st0" d="M1392.55,178l-14.82,62.86l-15.84-57.6h-13.35l-15.84,57.6L1318.67,178h-16.63l21.27,80h17.76l14.14-51.89
				l14.14,51.89h17.76l21.27-80H1392.55z M1241.84,225.77l10.52-30.74l11.09,30.74H1241.84z M1274.99,258h16.63l-29.87-80h-18.22
				l-28.63,80h15.84l6.79-19.88h30.32L1274.99,258z M1156.76,198.8c0-5.94,5.43-10.06,13.46-10.06c7.81,0,12.79,3.89,14.26,11.2
				h14.82c-1.7-14.51-12.33-23.08-29.19-23.08c-16.41,0-29.19,8-29.19,23.54c0,28.46,43.11,19.89,43.11,36.8
				c0,6.17-5.77,9.6-14.48,9.6c-7.69,0-14.71-2.52-16.07-11.89h-14.82c1.7,16.46,13.58,24.23,31.11,24.23
				c19.23,0,30.66-9.37,30.66-24.35C1200.43,205.77,1156.76,215.26,1156.76,198.8 M1074.5,214.8v-24.46h10.64
				c10.86,0,16.97,3.77,16.97,12.23c0,8.46-6.11,12.23-16.97,12.23H1074.5z M1109.91,232.17c-2.38-4.46-4.86-7.54-8.03-9.6
				c8.94-3.2,15.61-9.72,15.61-20.46c0-16.91-13.69-24.11-29.19-24.11h-29.08v80h15.28v-30.86h5.32c7.92,0,10.98,1.6,14.82,8.46
				l12.45,22.4h17.2L1109.91,232.17z M989.19,225.77l10.52-30.74l11.09,30.74H989.19z M1022.34,258h16.63l-29.87-80h-18.21
				l-28.63,80h15.84l6.79-19.88h30.32L1022.34,258z M936.01,178l-14.82,62.86l-15.84-57.6H892l-15.84,57.6L862.13,178H845.5
				l21.27,80h17.76l14.14-51.89L912.82,258h17.76l21.27-80H936.01z"/>
		</g>
	</g>
</g>
</svg>
