<svg width="703.3" height="83.701" viewBox="0 0 703.3 83.701" xmlns="http://www.w3.org/2000/svg"><g id="svgGroup" stroke-linecap="round" fill-rule="evenodd" font-size="9pt" stroke="#000" stroke-width="0" fill="#304d6d" style="stroke:#000;stroke-width:0;fill:#304d6d"><path d="M 75.5 82.2 L 59.7 82.2 L 49.9 1.2 L 65.1 1.2 L 69.9 48.4 L 76 1.3 L 87.9 1.3 L 94.3 48.1 L 99.2 1.2 L 114.2 1.2 L 104.5 82.2 L 88.9 82.2 L 82 33.3 L 75.5 82.2 Z M 0 57.7 L 15.3 55.4 Q 15.366 58.813 15.754 61.364 A 23.045 23.045 0 0 0 16.25 63.8 A 15.466 15.466 0 0 0 16.833 65.583 Q 17.572 67.427 18.65 68.4 Q 20.2 69.8 22.4 69.8 A 6.366 6.366 0 0 0 23.678 69.682 Q 25.413 69.325 26.05 67.9 Q 26.9 66 26.9 63.9 A 17.297 17.297 0 0 0 26.457 59.89 A 12.936 12.936 0 0 0 24.5 55.45 A 30.715 30.715 0 0 0 21.876 52.205 Q 20.178 50.36 18 48.5 L 11 42.4 Q 6.4 38.5 3.25 33.55 A 19.488 19.488 0 0 1 0.661 27.042 Q 0.1 24.38 0.1 21.3 A 27.838 27.838 0 0 1 0.757 15.063 Q 1.786 10.584 4.43 7.387 A 16.934 16.934 0 0 1 6.2 5.55 Q 12.3 0.1 22.8 0.1 A 31.332 31.332 0 0 1 26.967 0.36 Q 30.658 0.857 33.25 2.3 A 16.567 16.567 0 0 1 37.093 5.203 A 14.369 14.369 0 0 1 39.25 8.05 Q 41.3 11.6 42.05 15.55 A 50.207 50.207 0 0 1 42.769 20.758 A 42.607 42.607 0 0 1 42.9 23.1 L 27.5 25 Q 27.4 21.4 27.05 18.75 A 12.889 12.889 0 0 0 26.73 17.105 Q 26.33 15.613 25.6 14.65 Q 24.523 13.23 22.294 13.201 A 7.183 7.183 0 0 0 22.2 13.2 A 4.641 4.641 0 0 0 20.641 13.449 Q 19.399 13.889 18.659 15.111 A 5.054 5.054 0 0 0 18.55 15.3 Q 17.4 17.4 17.4 19.5 A 15.449 15.449 0 0 0 17.702 22.643 Q 18.128 24.69 19.151 26.278 A 9.437 9.437 0 0 0 19.55 26.85 A 33.065 33.065 0 0 0 21.69 29.392 Q 22.846 30.641 24.242 31.934 A 58.544 58.544 0 0 0 25.2 32.8 L 31.9 38.7 Q 37.2 43.2 40.85 48.9 Q 44.5 54.6 44.5 63 A 21.562 21.562 0 0 1 43.271 70.342 A 20.016 20.016 0 0 1 41.9 73.35 Q 39.3 78 34.55 80.7 A 20.294 20.294 0 0 1 27.929 83.021 A 27.098 27.098 0 0 1 23.3 83.4 A 35.632 35.632 0 0 1 17.952 83.021 Q 14.959 82.566 12.47 81.566 A 19.646 19.646 0 0 1 10.6 80.7 A 17.048 17.048 0 0 1 3.365 73.3 A 21.359 21.359 0 0 1 2.9 72.35 A 27.482 27.482 0 0 1 1.17 67.221 Q 0.554 64.632 0.252 61.587 A 59.435 59.435 0 0 1 0 57.7 Z M 120.7 57.7 L 136 55.4 Q 136.066 58.813 136.454 61.364 A 23.045 23.045 0 0 0 136.95 63.8 A 15.466 15.466 0 0 0 137.533 65.583 Q 138.272 67.427 139.35 68.4 Q 140.9 69.8 143.1 69.8 A 6.366 6.366 0 0 0 144.378 69.682 Q 146.113 69.325 146.75 67.9 Q 147.6 66 147.6 63.9 A 17.297 17.297 0 0 0 147.157 59.89 A 12.936 12.936 0 0 0 145.2 55.45 A 30.715 30.715 0 0 0 142.576 52.205 Q 140.878 50.36 138.7 48.5 L 131.7 42.4 Q 127.1 38.5 123.95 33.55 A 19.488 19.488 0 0 1 121.361 27.042 Q 120.8 24.38 120.8 21.3 A 27.838 27.838 0 0 1 121.457 15.063 Q 122.486 10.584 125.13 7.387 A 16.934 16.934 0 0 1 126.9 5.55 Q 133 0.1 143.5 0.1 A 31.332 31.332 0 0 1 147.667 0.36 Q 151.358 0.857 153.95 2.3 A 16.567 16.567 0 0 1 157.793 5.203 A 14.369 14.369 0 0 1 159.95 8.05 Q 162 11.6 162.75 15.55 A 50.207 50.207 0 0 1 163.469 20.758 A 42.607 42.607 0 0 1 163.6 23.1 L 148.2 25 Q 148.1 21.4 147.75 18.75 A 12.889 12.889 0 0 0 147.43 17.105 Q 147.03 15.613 146.3 14.65 Q 145.223 13.23 142.994 13.201 A 7.183 7.183 0 0 0 142.9 13.2 A 4.641 4.641 0 0 0 141.341 13.449 Q 140.099 13.889 139.359 15.111 A 5.054 5.054 0 0 0 139.25 15.3 Q 138.1 17.4 138.1 19.5 A 15.449 15.449 0 0 0 138.402 22.643 Q 138.828 24.69 139.851 26.278 A 9.437 9.437 0 0 0 140.25 26.85 A 33.065 33.065 0 0 0 142.39 29.392 Q 143.546 30.641 144.942 31.934 A 58.544 58.544 0 0 0 145.9 32.8 L 152.6 38.7 Q 157.9 43.2 161.55 48.9 Q 165.2 54.6 165.2 63 A 21.562 21.562 0 0 1 163.971 70.342 A 20.016 20.016 0 0 1 162.6 73.35 Q 160 78 155.25 80.7 A 20.294 20.294 0 0 1 148.629 83.021 A 27.098 27.098 0 0 1 144 83.4 A 35.632 35.632 0 0 1 138.652 83.021 Q 135.659 82.566 133.17 81.566 A 19.646 19.646 0 0 1 131.3 80.7 A 17.048 17.048 0 0 1 124.065 73.3 A 21.359 21.359 0 0 1 123.6 72.35 A 27.482 27.482 0 0 1 121.87 67.221 Q 121.254 64.632 120.952 61.587 A 59.435 59.435 0 0 1 120.7 57.7 Z M 543.1 82.2 L 500.8 82.2 L 500.8 70.4 L 520.2 40.6 Q 522.4 37.3 524.35 34.2 A 37.812 37.812 0 0 0 527.227 28.699 A 34.602 34.602 0 0 0 527.55 27.9 Q 528.8 24.7 528.8 21.2 A 14.044 14.044 0 0 0 528.689 19.374 Q 528.406 17.222 527.4 16 A 4.568 4.568 0 0 0 524.05 14.316 A 6.392 6.392 0 0 0 523.6 14.3 A 7.805 7.805 0 0 0 521.894 14.476 Q 520.742 14.734 519.894 15.372 A 4.645 4.645 0 0 0 519.4 15.8 A 7.102 7.102 0 0 0 517.896 18.066 A 9.759 9.759 0 0 0 517.35 19.8 Q 516.8 22.3 516.8 25.4 L 516.8 29.4 L 500.6 29.4 L 500.6 25.1 Q 500.6 17.9 502.9 12.25 Q 505.2 6.6 510.2 3.35 A 18.694 18.694 0 0 1 515.746 0.971 Q 518.162 0.345 521.007 0.169 A 37.146 37.146 0 0 1 523.3 0.1 Q 530.918 0.1 535.923 2.86 A 16.491 16.491 0 0 1 539.75 5.75 Q 545.029 11.125 545.287 20.525 A 35.597 35.597 0 0 1 545.3 21.5 A 27.247 27.247 0 0 1 544.567 27.907 A 24.072 24.072 0 0 1 543.75 30.6 Q 542.2 34.8 539.65 38.75 Q 537.1 42.7 534.2 47 L 519.4 69.1 L 543.1 69.1 L 543.1 82.2 Z M 649.5 82.2 L 607.2 82.2 L 607.2 70.4 L 626.6 40.6 Q 628.8 37.3 630.75 34.2 A 37.812 37.812 0 0 0 633.627 28.699 A 34.602 34.602 0 0 0 633.95 27.9 Q 635.2 24.7 635.2 21.2 A 14.044 14.044 0 0 0 635.089 19.374 Q 634.806 17.222 633.8 16 A 4.568 4.568 0 0 0 630.45 14.316 A 6.392 6.392 0 0 0 630 14.3 A 7.805 7.805 0 0 0 628.294 14.476 Q 627.142 14.734 626.294 15.372 A 4.645 4.645 0 0 0 625.8 15.8 A 7.102 7.102 0 0 0 624.296 18.066 A 9.759 9.759 0 0 0 623.75 19.8 Q 623.2 22.3 623.2 25.4 L 623.2 29.4 L 607 29.4 L 607 25.1 Q 607 17.9 609.3 12.25 Q 611.6 6.6 616.6 3.35 A 18.694 18.694 0 0 1 622.146 0.971 Q 624.562 0.345 627.407 0.169 A 37.146 37.146 0 0 1 629.7 0.1 Q 637.318 0.1 642.323 2.86 A 16.491 16.491 0 0 1 646.15 5.75 Q 651.429 11.125 651.687 20.525 A 35.597 35.597 0 0 1 651.7 21.5 A 27.247 27.247 0 0 1 650.967 27.907 A 24.072 24.072 0 0 1 650.15 30.6 Q 648.6 34.8 646.05 38.75 Q 643.5 42.7 640.6 47 L 625.8 69.1 L 649.5 69.1 L 649.5 82.2 Z M 391.5 82.2 L 375.2 82.2 L 375.2 24.4 L 391.5 24.4 L 391.5 30.2 A 30.402 30.402 0 0 1 395.127 27.081 A 24.227 24.227 0 0 1 398.15 25.2 Q 401.6 23.4 405.4 23.4 A 12.209 12.209 0 0 1 408.022 23.667 A 8.577 8.577 0 0 1 411.35 25.15 A 10.275 10.275 0 0 1 414.32 28.678 A 12.889 12.889 0 0 1 414.9 29.95 A 16.973 16.973 0 0 1 415.902 33.872 A 22.288 22.288 0 0 1 416.1 36.9 L 416.1 82.2 L 399.9 82.2 L 399.9 39.2 A 10.15 10.15 0 0 0 399.838 38.042 Q 399.695 36.798 399.219 36.03 A 3.036 3.036 0 0 0 399.2 36 A 2.165 2.165 0 0 0 398.097 35.134 Q 397.476 34.9 396.6 34.9 Q 395.6 34.9 394.25 35.45 A 12.182 12.182 0 0 0 392.715 36.212 A 15.662 15.662 0 0 0 391.5 37 L 391.5 82.2 Z M 425 65.4 L 425 41.5 A 38.746 38.746 0 0 1 425 41.416 Q 425.011 36.252 426.4 32.327 A 20.066 20.066 0 0 1 426.5 32.05 A 15.593 15.593 0 0 1 428.34 28.488 A 12.624 12.624 0 0 1 431 25.7 A 11.016 11.016 0 0 1 436.036 23.582 A 14.823 14.823 0 0 1 438.4 23.4 Q 441.6 23.4 444.5 24.65 Q 447.4 25.9 449.8 28 L 449.8 1.2 L 466.1 1.2 L 466.1 82.2 L 449.8 82.2 L 449.8 77.7 A 25.233 25.233 0 0 1 446.699 80.262 A 20.298 20.298 0 0 1 444.2 81.75 A 13.965 13.965 0 0 1 440.938 82.923 A 11.843 11.843 0 0 1 438.4 83.2 A 14.574 14.574 0 0 1 434.175 82.619 A 11.103 11.103 0 0 1 428.5 78.7 A 14.495 14.495 0 0 1 426.234 74.335 Q 425.559 72.306 425.253 69.824 A 36.257 36.257 0 0 1 425 65.4 Z M 217.4 82.2 L 199.5 82.2 L 199.5 1.2 L 226.7 1.2 A 31.82 31.82 0 0 1 231.785 1.583 Q 235.753 2.226 238.7 3.95 Q 243.4 6.7 245.7 11.95 Q 247.733 16.59 247.969 22.988 A 46.423 46.423 0 0 1 248 24.7 Q 248 33.959 244.992 38.901 A 13.79 13.79 0 0 1 244.9 39.05 Q 241.8 44 236.5 45.9 A 32.026 32.026 0 0 1 229.463 47.522 A 41.084 41.084 0 0 1 224.6 47.8 L 217.4 47.8 L 217.4 82.2 Z M 695.8 82.2 L 680.2 82.2 L 680.2 64 L 655.3 64 L 655.3 51.7 L 676.4 1.2 L 695.8 1.2 L 695.8 51.6 L 703.3 51.6 L 703.3 64 L 695.8 64 L 695.8 82.2 Z M 349.9 46.4 L 349.9 40.6 Q 349.9 39.213 349.643 38.124 A 7.649 7.649 0 0 0 349.6 37.95 A 4.559 4.559 0 0 0 349.29 37.099 Q 349.033 36.572 348.651 36.199 A 2.866 2.866 0 0 0 348.6 36.15 A 2.194 2.194 0 0 0 347.806 35.689 Q 347.47 35.574 347.059 35.529 A 5.148 5.148 0 0 0 346.5 35.5 A 5.254 5.254 0 0 0 345.688 35.559 Q 345.264 35.626 344.922 35.767 A 2.344 2.344 0 0 0 344.35 36.1 A 2.998 2.998 0 0 0 343.466 37.281 A 3.898 3.898 0 0 0 343.3 37.75 A 10.577 10.577 0 0 0 343.026 39.008 A 13.821 13.821 0 0 0 342.9 40.1 L 342.5 44.3 L 327.3 43.7 Q 327.621 37.014 329.824 32.58 A 15.54 15.54 0 0 1 332.85 28.35 A 15.807 15.807 0 0 1 338.927 24.717 Q 341.403 23.873 344.43 23.57 A 35.874 35.874 0 0 1 348 23.4 A 25.338 25.338 0 0 1 353.036 23.868 Q 355.973 24.464 358.213 25.821 A 12.897 12.897 0 0 1 361.15 28.25 A 16.724 16.724 0 0 1 365.146 36.641 A 23.453 23.453 0 0 1 365.5 40.8 L 365.5 67.8 A 149.547 149.547 0 0 0 365.521 70.374 Q 365.545 71.776 365.597 73.011 A 80.519 80.519 0 0 0 365.65 74.1 A 90.93 90.93 0 0 0 365.777 76.027 Q 365.85 76.979 365.938 77.824 A 49.067 49.067 0 0 0 366.05 78.8 A 275.321 275.321 0 0 0 366.23 80.216 Q 366.303 80.771 366.37 81.267 A 137.074 137.074 0 0 0 366.5 82.2 L 351.9 82.2 Q 351.6 79.9 351.2 77.2 A 94.282 94.282 0 0 0 351.057 76.265 Q 350.763 74.407 350.6 74 Q 349.6 77.6 346.85 80.4 Q 344.1 83.2 339.5 83.2 A 15.268 15.268 0 0 1 336.037 82.827 A 11.222 11.222 0 0 1 332.1 81.1 Q 329.1 79 327.6 75.75 A 15.728 15.728 0 0 1 326.1 69.207 A 15.407 15.407 0 0 1 326.1 69.1 A 22.524 22.524 0 0 1 326.455 64.994 Q 326.909 62.547 327.943 60.559 A 13.65 13.65 0 0 1 328.25 60 Q 330.4 56.3 333.9 53.8 Q 337.4 51.3 341.6 49.55 Q 345.8 47.8 349.9 46.4 Z M 553.5 60.5 L 553.5 23.8 A 36.302 36.302 0 0 1 554.015 17.535 A 26.837 26.837 0 0 1 555.85 11.35 Q 558.2 6 563.1 3 Q 567.464 0.329 573.97 0.036 A 36.333 36.333 0 0 1 575.6 0 A 31.571 31.571 0 0 1 580.862 0.414 Q 583.707 0.895 586.037 1.937 A 17.053 17.053 0 0 1 588.05 3 Q 592.9 6 595.25 11.35 A 27.054 27.054 0 0 1 597.15 17.923 A 36.685 36.685 0 0 1 597.6 23.8 L 597.6 60.5 Q 597.6 67.3 595.1 72.55 Q 592.6 77.8 587.7 80.75 A 19.801 19.801 0 0 1 581.556 83.115 Q 579.021 83.655 576.098 83.697 A 34.567 34.567 0 0 1 575.6 83.7 A 29.955 29.955 0 0 1 570.263 83.25 Q 567.113 82.68 564.551 81.386 A 17.699 17.699 0 0 1 563.4 80.75 Q 558.5 77.8 556 72.6 A 24.777 24.777 0 0 1 553.913 65.826 A 32.982 32.982 0 0 1 553.5 60.5 Z M 318.7 82.2 L 302.5 82.2 L 302.5 1.2 L 318.7 1.2 L 318.7 82.2 Z M 252.3 64.3 L 252.3 42.3 A 26.761 26.761 0 0 1 252.674 37.699 Q 253.129 35.09 254.14 32.957 A 15.303 15.303 0 0 1 254.75 31.8 Q 257.2 27.6 261.75 25.5 A 22.038 22.038 0 0 1 267.22 23.832 Q 269.652 23.407 272.412 23.401 A 36.53 36.53 0 0 1 272.5 23.4 A 30.895 30.895 0 0 1 277.609 23.802 Q 280.594 24.303 283.09 25.427 A 19.399 19.399 0 0 1 283.25 25.5 Q 287.8 27.6 290.3 31.8 Q 292.8 36 292.8 42.3 L 292.8 64.3 A 26.239 26.239 0 0 1 292.419 68.902 Q 291.954 71.511 290.922 73.643 A 15.199 15.199 0 0 1 290.3 74.8 Q 287.8 79 283.25 81.1 A 22.038 22.038 0 0 1 277.78 82.769 Q 275.348 83.194 272.588 83.2 A 36.53 36.53 0 0 1 272.5 83.2 A 30.895 30.895 0 0 1 267.391 82.798 Q 264.406 82.298 261.91 81.174 A 19.399 19.399 0 0 1 261.75 81.1 Q 257.2 79 254.75 74.8 A 17.056 17.056 0 0 1 252.875 69.911 Q 252.408 67.832 252.32 65.427 A 30.967 30.967 0 0 1 252.3 64.3 Z M 580.6 60.1 L 580.6 24.2 A 34.63 34.63 0 0 0 580.556 22.508 Q 580.512 21.62 580.426 20.634 A 57.952 57.952 0 0 0 580.4 20.35 A 9.003 9.003 0 0 0 579.863 17.974 A 7.821 7.821 0 0 0 579.15 16.55 Q 578.126 14.942 575.724 14.901 A 7.413 7.413 0 0 0 575.6 14.9 Q 573.818 14.9 572.773 15.739 A 3.306 3.306 0 0 0 572.05 16.55 A 8.159 8.159 0 0 0 570.908 19.546 A 9.902 9.902 0 0 0 570.8 20.35 A 50.665 50.665 0 0 0 570.656 22.267 Q 570.607 23.169 570.601 23.973 A 29.667 29.667 0 0 0 570.6 24.2 L 570.6 60.1 Q 570.6 61.6 570.9 63.65 A 9.124 9.124 0 0 0 571.521 65.909 A 7.89 7.89 0 0 0 572.25 67.25 A 3.389 3.389 0 0 0 574.405 68.678 A 5.472 5.472 0 0 0 575.6 68.8 A 5.825 5.825 0 0 0 576.906 68.664 Q 577.763 68.467 578.371 67.985 A 3.263 3.263 0 0 0 579.05 67.25 A 7.811 7.811 0 0 0 580.228 64.404 A 9.472 9.472 0 0 0 580.35 63.65 A 39.974 39.974 0 0 0 580.502 62.19 Q 580.563 61.47 580.586 60.834 A 20.425 20.425 0 0 0 580.6 60.1 Z M 449.8 71.3 L 449.8 34.8 Q 448.8 34.3 447.7 33.9 Q 446.6 33.5 445.6 33.5 A 4.078 4.078 0 0 0 444.243 33.714 Q 443.143 34.1 442.495 35.183 A 4.415 4.415 0 0 0 442.4 35.35 Q 441.407 37.188 441.4 39.765 A 13.46 13.46 0 0 0 441.4 39.8 L 441.4 66.4 Q 441.4 68.2 441.8 69.65 A 5.885 5.885 0 0 0 442.236 70.786 A 4.288 4.288 0 0 0 443.1 71.95 A 3.037 3.037 0 0 0 444.601 72.713 A 4.41 4.41 0 0 0 445.5 72.8 Q 446.3 72.8 447.45 72.4 A 12.491 12.491 0 0 0 448.907 71.783 A 15.261 15.261 0 0 0 449.8 71.3 Z M 276.7 65.4 L 276.7 41.2 A 23.333 23.333 0 0 0 276.651 39.642 Q 276.569 38.419 276.35 37.45 A 6.004 6.004 0 0 0 276.001 36.366 Q 275.655 35.575 275.1 35.05 Q 274.258 34.255 272.804 34.204 A 5.774 5.774 0 0 0 272.6 34.2 Q 271 34.2 270.1 35.05 Q 269.28 35.825 268.875 37.181 A 7.429 7.429 0 0 0 268.8 37.45 Q 268.4 39 268.4 41.2 L 268.4 65.4 Q 268.4 67.128 268.647 68.454 A 10.372 10.372 0 0 0 268.8 69.15 A 6.433 6.433 0 0 0 269.17 70.215 Q 269.446 70.818 269.831 71.268 A 3.695 3.695 0 0 0 270.1 71.55 Q 270.942 72.345 272.396 72.397 A 5.774 5.774 0 0 0 272.6 72.4 Q 274.2 72.4 275.1 71.55 Q 275.942 70.755 276.303 69.346 A 7.068 7.068 0 0 0 276.35 69.15 A 12.868 12.868 0 0 0 276.577 67.784 Q 276.654 67.111 276.683 66.348 A 25.024 25.024 0 0 0 276.7 65.4 Z M 680.2 17.9 L 668 51.6 L 680.2 51.6 L 680.2 17.9 Z M 217.4 13.8 L 217.4 35.3 L 223.4 35.3 A 14.575 14.575 0 0 0 225.218 35.195 Q 226.134 35.079 226.881 34.838 A 5.601 5.601 0 0 0 228.4 34.1 A 5.34 5.34 0 0 0 230.236 31.788 A 7.493 7.493 0 0 0 230.65 30.5 Q 231.048 28.765 231.158 26.35 A 42.874 42.874 0 0 0 231.2 24.4 Q 231.2 21.627 230.84 19.454 A 20.503 20.503 0 0 0 230.75 18.95 Q 230.3 16.6 228.6 15.2 A 5.206 5.206 0 0 0 227.02 14.334 Q 225.616 13.834 223.575 13.803 A 17.956 17.956 0 0 0 223.3 13.8 L 217.4 13.8 Z M 349.9 69.3 L 349.9 53.5 A 49.541 49.541 0 0 0 347.18 55.251 A 42.618 42.618 0 0 0 346.2 55.95 A 15.954 15.954 0 0 0 344.099 57.787 A 13.938 13.938 0 0 0 343.3 58.7 Q 342.1 60.2 341.45 61.95 A 10.248 10.248 0 0 0 340.899 64.25 A 13.257 13.257 0 0 0 340.8 65.9 A 11.365 11.365 0 0 0 340.939 67.733 Q 341.098 68.71 341.443 69.502 A 5.578 5.578 0 0 0 342 70.5 A 4.034 4.034 0 0 0 343.266 71.688 Q 344.065 72.152 345.086 72.196 A 5.022 5.022 0 0 0 345.3 72.2 A 4.376 4.376 0 0 0 346.771 71.956 A 4.113 4.113 0 0 0 347.15 71.8 A 5.488 5.488 0 0 0 348.695 70.706 A 6.604 6.604 0 0 0 348.7 70.7 Q 349.4 70 349.9 69.3 Z" vector-effect="non-scaling-stroke"/></g></svg>